<mxfile host="Electron" agent="Mozilla/5.0 (Windows NT 10.0; Win64; x64) AppleWebKit/537.36 (KHTML, like Gecko) draw.io/28.1.2 Chrome/138.0.7204.243 Electron/37.4.0 Safari/537.36" version="28.1.2">
  <diagram id="l8hXMBHkgcEJcSW0mbfh" name="Page-1">
    <mxGraphModel dx="1252" dy="750" grid="1" gridSize="10" guides="1" tooltips="1" connect="1" arrows="1" fold="1" page="1" pageScale="1" pageWidth="1169" pageHeight="827" math="0" shadow="0">
      <root>
        <mxCell id="0" />
        <mxCell id="1" parent="0" />
        <mxCell id="KPSFrstp3I5E5WE4vEDi-1" value="Blazor Server&amp;nbsp; &amp;nbsp; &amp;nbsp; &amp;nbsp;Interactive" style="aspect=fixed;html=1;points=[];align=center;image;fontSize=12;image=img/lib/azure2/general/Browser.svg;" parent="1" vertex="1">
          <mxGeometry x="105.5" y="190" width="65" height="52" as="geometry" />
        </mxCell>
        <mxCell id="KPSFrstp3I5E5WE4vEDi-7" style="edgeStyle=orthogonalEdgeStyle;rounded=0;orthogonalLoop=1;jettySize=auto;html=1;exitX=0.5;exitY=0;exitDx=0;exitDy=0;" parent="1" source="KPSFrstp3I5E5WE4vEDi-6" target="KWQ1jZJJK1aeaoVWinUO-15" edge="1">
          <mxGeometry relative="1" as="geometry">
            <mxPoint x="138.5" y="530" as="targetPoint" />
          </mxGeometry>
        </mxCell>
        <mxCell id="KPSFrstp3I5E5WE4vEDi-6" value="SQL Express Database" style="image;html=1;image=img/lib/clip_art/computers/Database_128x128.png" parent="1" vertex="1">
          <mxGeometry x="98.5" y="660" width="80" height="80" as="geometry" />
        </mxCell>
        <mxCell id="KPSFrstp3I5E5WE4vEDi-8" value="Blazor Server&amp;nbsp; &amp;nbsp; &amp;nbsp; Interactive" style="aspect=fixed;html=1;points=[];align=center;image;fontSize=12;image=img/lib/azure2/general/Browser.svg;" parent="1" vertex="1">
          <mxGeometry x="487.29999999999995" y="190" width="65" height="52" as="geometry" />
        </mxCell>
        <mxCell id="3Pf_o91KMOeA2an3Wayn-23" style="edgeStyle=orthogonalEdgeStyle;rounded=0;orthogonalLoop=1;jettySize=auto;html=1;exitX=1;exitY=0.5;exitDx=0;exitDy=0;" edge="1" parent="1" source="KPSFrstp3I5E5WE4vEDi-10" target="KWQ1jZJJK1aeaoVWinUO-3">
          <mxGeometry relative="1" as="geometry" />
        </mxCell>
        <mxCell id="3Pf_o91KMOeA2an3Wayn-24" style="edgeStyle=orthogonalEdgeStyle;rounded=0;orthogonalLoop=1;jettySize=auto;html=1;exitX=1;exitY=0.5;exitDx=0;exitDy=0;entryX=0;entryY=0.5;entryDx=0;entryDy=0;entryPerimeter=0;" edge="1" parent="1" source="KPSFrstp3I5E5WE4vEDi-10" target="3Pf_o91KMOeA2an3Wayn-10">
          <mxGeometry relative="1" as="geometry" />
        </mxCell>
        <mxCell id="3Pf_o91KMOeA2an3Wayn-26" style="edgeStyle=orthogonalEdgeStyle;rounded=0;orthogonalLoop=1;jettySize=auto;html=1;exitX=1;exitY=0.5;exitDx=0;exitDy=0;" edge="1" parent="1" source="KPSFrstp3I5E5WE4vEDi-10" target="3Pf_o91KMOeA2an3Wayn-8">
          <mxGeometry relative="1" as="geometry" />
        </mxCell>
        <mxCell id="KPSFrstp3I5E5WE4vEDi-10" value="ASP.NET Core API&lt;br&gt;Shared Hosting" style="aspect=fixed;perimeter=ellipsePerimeter;html=1;align=center;shadow=0;dashed=0;spacingTop=3;image;image=img/lib/active_directory/web_server.svg;" parent="1" vertex="1">
          <mxGeometry x="479.29999999999995" y="420" width="88" height="110" as="geometry" />
        </mxCell>
        <mxCell id="KPSFrstp3I5E5WE4vEDi-11" style="edgeStyle=orthogonalEdgeStyle;rounded=0;orthogonalLoop=1;jettySize=auto;html=1;exitX=0.5;exitY=0;exitDx=0;exitDy=0;" parent="1" source="KPSFrstp3I5E5WE4vEDi-13" target="KPSFrstp3I5E5WE4vEDi-10" edge="1">
          <mxGeometry relative="1" as="geometry">
            <mxPoint x="523.3" y="660" as="sourcePoint" />
          </mxGeometry>
        </mxCell>
        <mxCell id="KPSFrstp3I5E5WE4vEDi-13" value="MS SQL Database Server&lt;br&gt;Shared Hosting" style="aspect=fixed;perimeter=ellipsePerimeter;html=1;align=center;shadow=0;dashed=0;spacingTop=3;image;image=img/lib/active_directory/database_server.svg;" parent="1" vertex="1">
          <mxGeometry x="470" y="650" width="106.6" height="130" as="geometry" />
        </mxCell>
        <mxCell id="KPSFrstp3I5E5WE4vEDi-14" value="Local Development" style="text;html=1;resizable=0;autosize=1;align=center;verticalAlign=middle;points=[];fillColor=none;strokeColor=none;rounded=0;fontStyle=1;fontColor=#6666FF;" parent="1" vertex="1">
          <mxGeometry x="70" y="130" width="130" height="30" as="geometry" />
        </mxCell>
        <mxCell id="KPSFrstp3I5E5WE4vEDi-15" value="Deployed" style="text;html=1;resizable=0;autosize=1;align=center;verticalAlign=middle;points=[];fillColor=none;strokeColor=none;rounded=0;fontStyle=1;fontColor=#6666FF;" parent="1" vertex="1">
          <mxGeometry x="479.79999999999995" y="130" width="80" height="30" as="geometry" />
        </mxCell>
        <mxCell id="KPSFrstp3I5E5WE4vEDi-16" value="&lt;font style=&quot;font-size: 24px;&quot;&gt;Bed Brigade Application Infrastructure&lt;/font&gt;" style="text;html=1;resizable=0;autosize=1;align=center;verticalAlign=middle;points=[];rounded=0;fontColor=#6666FF;" parent="1" vertex="1">
          <mxGeometry x="330" y="35" width="430" height="40" as="geometry" />
        </mxCell>
        <mxCell id="KWQ1jZJJK1aeaoVWinUO-3" value="Email Service" style="sketch=0;pointerEvents=1;shadow=0;dashed=0;html=1;strokeColor=none;fillColor=#505050;labelPosition=center;verticalLabelPosition=bottom;verticalAlign=top;outlineConnect=0;align=center;shape=mxgraph.office.services.email_service;" parent="1" vertex="1">
          <mxGeometry x="760" y="560" width="94" height="80" as="geometry" />
        </mxCell>
        <mxCell id="KWQ1jZJJK1aeaoVWinUO-4" value="Mock Email File System" style="aspect=fixed;html=1;points=[];align=center;image;fontSize=12;image=img/lib/azure2/general/File.svg;" parent="1" vertex="1">
          <mxGeometry x="260" y="591" width="56.00000000000001" height="69" as="geometry" />
        </mxCell>
        <mxCell id="3Pf_o91KMOeA2an3Wayn-3" style="edgeStyle=orthogonalEdgeStyle;rounded=0;orthogonalLoop=1;jettySize=auto;html=1;" edge="1" parent="1" source="KWQ1jZJJK1aeaoVWinUO-15" target="3Pf_o91KMOeA2an3Wayn-1">
          <mxGeometry relative="1" as="geometry" />
        </mxCell>
        <mxCell id="3Pf_o91KMOeA2an3Wayn-5" style="edgeStyle=orthogonalEdgeStyle;rounded=0;orthogonalLoop=1;jettySize=auto;html=1;" edge="1" parent="1" source="KWQ1jZJJK1aeaoVWinUO-15" target="KPSFrstp3I5E5WE4vEDi-1">
          <mxGeometry relative="1" as="geometry" />
        </mxCell>
        <mxCell id="3Pf_o91KMOeA2an3Wayn-6" style="edgeStyle=orthogonalEdgeStyle;rounded=0;orthogonalLoop=1;jettySize=auto;html=1;" edge="1" parent="1" source="KWQ1jZJJK1aeaoVWinUO-15" target="KWQ1jZJJK1aeaoVWinUO-4">
          <mxGeometry relative="1" as="geometry" />
        </mxCell>
        <mxCell id="KWQ1jZJJK1aeaoVWinUO-15" value="&amp;nbsp; &amp;nbsp; &amp;nbsp; &amp;nbsp; &amp;nbsp; &amp;nbsp; &amp;nbsp; &amp;nbsp; Desktop" style="verticalLabelPosition=bottom;sketch=0;aspect=fixed;html=1;verticalAlign=top;strokeColor=none;align=center;outlineConnect=0;shape=mxgraph.citrix.desktop;" parent="1" vertex="1">
          <mxGeometry x="93.5" y="426" width="89" height="98" as="geometry" />
        </mxCell>
        <mxCell id="fygZmoa3CaXH732BGQSu-2" value="Signal R" style="text;html=1;strokeColor=none;fillColor=none;align=center;verticalAlign=middle;whiteSpace=wrap;rounded=0;" parent="1" vertex="1">
          <mxGeometry x="140" y="310" width="60" height="30" as="geometry" />
        </mxCell>
        <mxCell id="fygZmoa3CaXH732BGQSu-3" value="Signal R" style="text;html=1;strokeColor=none;fillColor=none;align=center;verticalAlign=middle;whiteSpace=wrap;rounded=0;" parent="1" vertex="1">
          <mxGeometry x="530" y="320" width="60" height="30" as="geometry" />
        </mxCell>
        <mxCell id="fygZmoa3CaXH732BGQSu-4" value="" style="endArrow=classic;startArrow=classic;html=1;rounded=0;" parent="1" source="KPSFrstp3I5E5WE4vEDi-10" target="KPSFrstp3I5E5WE4vEDi-8" edge="1">
          <mxGeometry width="50" height="50" relative="1" as="geometry">
            <mxPoint x="390" y="350" as="sourcePoint" />
            <mxPoint x="440" y="300" as="targetPoint" />
          </mxGeometry>
        </mxCell>
        <mxCell id="3Pf_o91KMOeA2an3Wayn-1" value="Mock SMS&amp;nbsp; File System" style="aspect=fixed;html=1;points=[];align=center;image;fontSize=12;image=img/lib/azure2/general/File.svg;" vertex="1" parent="1">
          <mxGeometry x="260" y="290.5" width="56.00000000000001" height="69" as="geometry" />
        </mxCell>
        <mxCell id="3Pf_o91KMOeA2an3Wayn-8" value="Twilio&amp;nbsp; &amp;nbsp;SMS" style="dashed=0;outlineConnect=0;html=1;align=center;labelPosition=center;verticalLabelPosition=bottom;verticalAlign=top;shape=mxgraph.webicons.sms;fillColor=#86D466;gradientColor=#42B418" vertex="1" parent="1">
          <mxGeometry x="640" y="160" width="80" height="80" as="geometry" />
        </mxCell>
        <mxCell id="3Pf_o91KMOeA2an3Wayn-10" value="Chat GPT&lt;br&gt;Language Translation" style="sketch=0;points=[[0,0,0],[0.25,0,0],[0.5,0,0],[0.75,0,0],[1,0,0],[0,1,0],[0.25,1,0],[0.5,1,0],[0.75,1,0],[1,1,0],[0,0.25,0],[0,0.5,0],[0,0.75,0],[1,0.25,0],[1,0.5,0],[1,0.75,0]];outlineConnect=0;fontColor=#232F3E;fillColor=#01A88D;strokeColor=#ffffff;dashed=0;verticalLabelPosition=bottom;verticalAlign=top;align=center;html=1;fontSize=12;fontStyle=0;aspect=fixed;shape=mxgraph.aws4.resourceIcon;resIcon=mxgraph.aws4.translate;" vertex="1" parent="1">
          <mxGeometry x="950" y="310" width="78" height="78" as="geometry" />
        </mxCell>
        <mxCell id="3Pf_o91KMOeA2an3Wayn-12" value="Geolocation LocationIQ" style="html=1;verticalLabelPosition=bottom;align=center;labelBackgroundColor=#ffffff;verticalAlign=top;strokeWidth=2;strokeColor=#0080F0;shadow=0;dashed=0;shape=mxgraph.ios7.icons.location;" vertex="1" parent="1">
          <mxGeometry x="990" y="610" width="49" height="60" as="geometry" />
        </mxCell>
        <mxCell id="3Pf_o91KMOeA2an3Wayn-13" value="Stripe Payments" style="html=1;whiteSpace=wrap;strokeColor=none;fillColor=#0079D6;labelPosition=center;verticalLabelPosition=middle;verticalAlign=top;align=center;fontSize=12;outlineConnect=0;spacingTop=-6;fontColor=#FFFFFF;sketch=0;shape=mxgraph.sitemap.payment;" vertex="1" parent="1">
          <mxGeometry x="760" y="700" width="120" height="70" as="geometry" />
        </mxCell>
        <mxCell id="3Pf_o91KMOeA2an3Wayn-22" style="edgeStyle=orthogonalEdgeStyle;rounded=0;orthogonalLoop=1;jettySize=auto;html=1;entryX=0;entryY=0.5;entryDx=0;entryDy=0;entryPerimeter=0;" edge="1" parent="1" source="KPSFrstp3I5E5WE4vEDi-10" target="3Pf_o91KMOeA2an3Wayn-13">
          <mxGeometry relative="1" as="geometry" />
        </mxCell>
        <mxCell id="3Pf_o91KMOeA2an3Wayn-25" style="edgeStyle=orthogonalEdgeStyle;rounded=0;orthogonalLoop=1;jettySize=auto;html=1;exitX=1;exitY=0.5;exitDx=0;exitDy=0;entryX=0.479;entryY=0.043;entryDx=0;entryDy=0;entryPerimeter=0;" edge="1" parent="1" source="KPSFrstp3I5E5WE4vEDi-10" target="3Pf_o91KMOeA2an3Wayn-12">
          <mxGeometry relative="1" as="geometry" />
        </mxCell>
      </root>
    </mxGraphModel>
  </diagram>
</mxfile>
